<?xml version="1.0" encoding="UTF-8"?>
<svg id="Ebene_2" data-name="Ebene 2" xmlns="http://www.w3.org/2000/svg" viewBox="0 0 1440.66 201.01">
  <defs>
    <style>
      .cls-1 {
        fill: #f0efe6;
      }

      .cls-2 {
        fill: #d82e11;
      }

      .cls-3 {
        fill: #590d0f;
      }

      .cls-4 {
        fill: #9e1b1e;
      }
    </style>
  </defs>
  <g>
    <g>
      <path class="cls-1" d="M691.85,68.08c-4.3-3.96-9.36-6.99-15.17-9.11-5.8-2.18-12.17-3.28-19.08-3.28h-36.9s0,89.62,0,89.62h37.15c6.83,0,13.11-1.06,18.83-3.16,5.81-2.2,10.87-5.27,15.17-9.23,4.3-3.96,7.63-8.69,9.98-14.17,2.44-5.48,3.67-11.58,3.67-18.32,0-6.66-1.23-12.73-3.67-18.2-2.35-5.48-5.68-10.19-9.98-14.15ZM679.35,114.34c-2.03,3.79-4.94,6.65-8.73,8.6-3.71,1.93-8.09,2.9-13.15,2.9h-14.15s0-50.69,0-50.69h14.15c5.06,0,9.43.98,13.15,2.91,3.71,1.93,6.57,4.8,8.6,8.6,2.1,3.7,3.16,8.25,3.16,13.64,0,5.48-1.02,10.15-3.03,14.03Z"/>
      <polygon class="cls-1" points="784.31 126.06 784.31 145.31 717.29 145.31 717.29 55.7 783.54 55.7 783.54 74.93 740.1 74.93 740.1 91.18 779.72 91.18 779.72 109.91 740.1 109.91 740.1 126.06 784.31 126.06"/>
      <polygon class="cls-1" points="278.45 74.93 278.45 92.3 318.46 92.3 318.46 111.53 278.45 111.53 278.45 145.31 255.65 145.31 255.65 55.7 320.5 55.7 320.5 74.93 278.45 74.93"/>
      <path class="cls-1" d="M408.17,68.5c-4.15-4.07-9.03-7.2-14.64-9.39-5.61-2.28-11.75-3.42-18.4-3.42s-12.81,1.13-18.42,3.42c-5.61,2.19-10.49,5.32-14.64,9.39-4.13,4.06-7.39,8.81-9.76,14.26-2.27,5.37-3.4,11.22-3.4,17.56s1.17,12.28,3.53,17.8c2.36,5.45,5.61,10.21,9.76,14.27,4.22,4.06,9.14,7.24,14.75,9.5,5.61,2.28,11.75,3.42,18.42,3.42s12.64-1.1,18.16-3.29c5.61-2.27,10.49-5.45,14.64-9.5,4.15-4.15,7.35-8.95,9.63-14.4,2.36-5.45,3.53-11.33,3.53-17.67s-1.17-12.24-3.53-17.69c-2.28-5.45-5.48-10.2-9.63-14.26ZM396.09,113.73c-1.95,3.82-4.71,6.79-8.29,8.9-3.57,2.12-7.8,3.18-12.67,3.18-3.67,0-6.96-.57-9.88-1.71-2.92-1.21-5.45-2.92-7.56-5.12-2.11-2.28-3.73-4.95-4.88-8.04-1.05-3.18-1.58-6.71-1.58-10.61,0-5.04.97-9.47,2.92-13.29,1.95-3.82,4.71-6.74,8.29-8.79,3.57-2.11,7.8-3.16,12.68-3.16,3.66,0,6.95.61,9.87,1.83,2.92,1.22,5.45,2.96,7.56,5.24,2.11,2.19,3.69,4.84,4.75,7.93,1.13,3.09,1.7,6.5,1.7,10.24,0,5.12-.97,9.59-2.92,13.41Z"/>
      <polygon class="cls-1" points="581.35 55.7 603.97 55.7 603.97 145.31 587.16 145.31 547.99 95.53 547.99 145.31 525.36 145.31 525.36 55.7 541.15 55.7 581.35 106.63 581.35 55.7"/>
      <path class="cls-1" d="M487.58,55.7h22.94v52.28c0,7.22-1.62,13.67-4.85,19.37-3.23,5.61-7.73,10.03-13.5,13.25-5.69,3.15-12.41,4.72-20.13,4.72s-14.4-1.57-20.26-4.72c-5.78-3.23-10.29-7.69-13.52-13.38-3.23-5.69-4.83-12.15-4.83-19.37v-52.15h22.69v53.81c0,3.23.67,6.03,2.03,8.4,1.45,2.29,3.36,4.08,5.74,5.36,2.45,1.19,5.18,1.78,8.15,1.78s5.73-.59,8.02-1.78c2.29-1.28,4.12-3.07,5.48-5.36,1.36-2.29,2.04-5.05,2.04-8.27v-53.94Z"/>
      <path class="cls-1" d="M844.75,107.97c2.34-.52,4.53-1.27,6.57-2.22,4.72-2.27,8.39-5.4,11-9.36,2.69-4.04,4.04-8.72,4.04-14.02s-1.31-9.94-3.92-13.9c-2.6-3.96-6.23-7.08-10.87-9.36-4.55-2.27-9.85-3.41-15.92-3.41h-38.17v89.61h22.62v-36.27h1.35l24.57,36.27h26.16l-27.43-37.35ZM820.1,72.5h12.39c3.71,0,6.53.97,8.47,2.91,2.03,1.86,3.03,4.3,3.03,7.33s-1.01,5.61-3.03,7.45c-1.93,1.78-4.76,2.67-8.47,2.67h-12.39v-20.36Z"/>
      <path class="cls-1" d="M940.88,118.14c0,8.64-3.05,15.34-9.18,20.07-6.04,4.73-14.53,7.1-25.47,7.1-7.27,0-13.58-1.1-18.97-3.3-5.3-2.2-10.16-5.67-14.57-10.4l13.83-13.96c3.03,3.18,6.24,5.63,9.67,7.34,3.43,1.63,7.3,2.46,11.63,2.46,3.67,0,6.49-.62,8.44-1.84,2.05-1.32,3.06-3.06,3.06-5.27,0-2.04-.73-3.72-2.2-5.03-1.47-1.38-3.43-2.57-5.87-3.54-2.37-1.06-5.02-2.05-7.96-2.94-2.86-.99-5.75-2.13-8.7-3.43-2.85-1.39-5.51-3.06-7.95-5.03-2.37-1.96-4.29-4.4-5.76-7.34-1.47-2.94-2.2-6.57-2.2-10.9,0-5.54,1.3-10.28,3.92-14.2,2.68-3.92,6.4-6.94,11.14-9.06,4.73-2.11,10.24-3.18,16.52-3.18s12.09,1.06,17.39,3.18c5.3,2.13,9.67,5.06,13.1,8.82l-13.96,13.83c-2.61-2.62-5.27-4.57-7.95-5.89-2.7-1.3-5.63-1.95-8.82-1.95-3.03,0-5.39.53-7.1,1.58-1.71,1.06-2.57,2.57-2.57,4.53s.73,3.56,2.2,4.77c1.47,1.23,3.39,2.33,5.76,3.32,2.44.9,5.1,1.84,7.95,2.81,2.95.97,5.84,2.13,8.7,3.43,2.86,1.3,5.47,2.97,7.83,5.01,2.46,2.05,4.4,4.62,5.87,7.72,1.47,3.1,2.2,6.85,2.2,11.27Z"/>
    </g>
    <g>
      <path class="cls-1" d="M1161.99,82.92c-2.26-5.44-5.39-10.22-9.43-14.31-4-4.1-8.7-7.29-14.05-9.56-5.27-2.26-11.03-3.39-17.21-3.39s-11.99,1.13-17.35,3.39c-5.27,2.27-9.91,5.46-13.95,9.56-3.92,4.09-7.01,8.87-9.27,14.31-2.18,5.36-3.27,11.18-3.27,17.47s1.09,12.01,3.27,17.46c2.26,5.44,5.4,10.26,9.42,14.44,4.03,4.1,8.7,7.34,14.05,9.68,5.36,2.26,11.16,3.39,17.35,3.39s11.79-1.13,17.08-3.39c5.35-2.34,10.01-5.57,13.94-9.68,4.04-4.1,7.17-8.87,9.43-14.31s3.39-11.27,3.39-17.47-1.13-12.14-3.39-17.59ZM1149.05,117.84c-2.75,5.03-6.55,9-11.3,11.94-4.69,2.84-10.2,4.27-16.46,4.27-4.62,0-8.9-.84-12.82-2.52-3.84-1.68-7.21-3.97-10.05-6.91-2.77-3.01-4.95-6.57-6.52-10.68-1.52-4.18-2.27-8.7-2.27-13.56,0-6.53,1.34-12.31,4.01-17.34,2.77-5.03,6.49-8.96,11.2-11.81,4.77-2.86,10.25-4.27,16.46-4.27,4.69,0,8.95.83,12.81,2.51,3.84,1.6,7.2,3.9,10.04,6.91,2.84,3.01,5.08,6.57,6.66,10.68,1.58,4.03,2.39,8.47,2.39,13.33,0,6.53-1.38,12.35-4.14,17.46Z"/>
      <path class="cls-1" d="M1250.92,55.65v55.55c0,4.58-.97,8.58-2.92,11.97-1.87,3.4-4.47,6.03-7.77,7.9-3.23,1.87-7.01,2.81-11.34,2.81s-7.94-.94-11.34-2.81c-3.31-1.87-5.94-4.51-7.89-7.9-1.96-3.4-2.94-7.43-2.94-12.11v-55.42h-11.97v55.69c0,6.53,1.49,12.4,4.45,17.59,2.98,5.09,7.01,9.13,12.11,12.09,5.19,2.9,11.05,4.33,17.59,4.33s12.49-1.44,17.59-4.33c5.1-2.96,9.13-7.01,12.11-12.09,2.96-5.1,4.45-10.92,4.45-17.47v-55.8h-12.11Z"/>
      <path class="cls-1" d="M1350.05,109.3c-1.51-3.09-3.51-5.61-6.03-7.53-2.51-1.92-5.27-3.52-8.29-4.78-3.01-1.25-6.08-2.38-9.17-3.39-3.01-1.09-5.78-2.26-8.3-3.52-2.51-1.25-4.56-2.75-6.16-4.52-1.51-1.84-2.26-4.22-2.26-7.16,0-3.69,1.39-6.53,4.14-8.55,2.77-2.09,6.49-3.14,11.18-3.14,3.86,0,7.25.75,10.18,2.27,3.01,1.51,5.82,3.77,8.42,6.78l8.04-8.04c-2.84-3.6-6.53-6.49-11.05-8.68-4.53-2.26-9.64-3.39-15.33-3.39-5.2,0-9.88.96-14.08,2.9-4.1,1.84-7.36,4.52-9.79,8.04-2.35,3.43-3.52,7.62-3.52,12.56,0,4.44.75,8.12,2.26,11.05,1.6,2.94,3.65,5.33,6.16,7.16,2.51,1.77,5.27,3.27,8.29,4.53,3.03,1.17,6.04,2.3,9.05,3.39,3.01,1,5.78,2.17,8.29,3.52,2.6,1.25,4.65,2.88,6.16,4.9,1.51,2.01,2.26,4.65,2.26,7.91,0,3.94-1.58,7.04-4.77,9.3-3.1,2.26-7.25,3.39-12.44,3.39s-9.72-.96-13.31-2.88c-3.6-2.01-6.78-4.95-9.55-8.79l-8.04,8.04c3.77,4.77,8.08,8.42,12.94,10.92,4.86,2.52,10.72,3.77,17.59,3.77,9.04,0,16.21-2.17,21.48-6.53,5.36-4.35,8.04-10.38,8.04-18.08,0-4.61-.79-8.43-2.39-11.44Z"/>
      <polygon class="cls-1" points="1440.66 134.39 1440.66 145.35 1381.8 145.35 1381.8 55.65 1440.66 55.65 1440.66 66.62 1393.77 66.62 1393.77 95.28 1436.46 95.28 1436.46 105.73 1393.77 105.73 1393.77 134.39 1440.66 134.39"/>
      <polygon class="cls-1" points="1048.08 55.65 1048.08 145.35 1036.11 145.35 1036.11 105.98 991 105.98 991 145.35 979.01 145.35 979.01 55.65 991 55.65 991 95.02 1036.11 95.02 1036.11 55.65 1048.08 55.65"/>
    </g>
  </g>
  <g>
    <path class="cls-2" d="M55.65,28.08h-27.57v27.57h27.57v-27.57Z"/>
    <path class="cls-2" d="M172.92,145.35v27.57h-55.16l27.57-27.57h27.58Z"/>
    <path class="cls-4" d="M172.92,28.08v117.27h-27.58,0V55.65H55.65v-27.57h117.27Z"/>
    <path class="cls-2" d="M200.5.5v144.85h-27.58V28.08H55.65V.5h144.85Z"/>
    <path class="cls-2" d="M117.76,172.93l-27.57,27.57H.5V55.65h27.57v117.27h89.69Z"/>
    <path class="cls-4" d="M145.34,145.35l-27.57,27.57H28.07V55.65s27.57,0,27.57,0v89.7h89.69Z"/>
    <path class="cls-3" d="M145.35,55.65v89.69h0s-89.69,0-89.69,0V55.65h89.7Z"/>
  </g>
</svg>