<?xml version="1.0" encoding="UTF-8"?>
<svg id="Ebene_2" data-name="Ebene 2" xmlns="http://www.w3.org/2000/svg" viewBox="0 0 751.15 201.01">
  <defs>
    <style>
      .cls-1 {
        fill: #f0efe6;
      }

      .cls-2 {
        fill: #d82e11;
      }

      .cls-3 {
        fill: #590d0f;
      }

      .cls-4 {
        fill: #9e1b1e;
      }
    </style>
  </defs>
  <g>
    <g>
      <path class="cls-1" d="M571.08,37.04c-3.11-2.86-6.77-5.06-10.97-6.59-4.2-1.58-8.8-2.37-13.8-2.37h-26.68s0,64.8,0,64.8h26.86c4.94,0,9.48-.77,13.62-2.29,4.2-1.59,7.86-3.81,10.97-6.67,3.11-2.86,5.52-6.28,7.22-10.24,1.77-3.96,2.65-8.37,2.65-13.25,0-4.82-.89-9.2-2.66-13.16-1.7-3.96-4.11-7.37-7.22-10.23ZM562.04,70.49c-1.46,2.74-3.57,4.81-6.31,6.22-2.68,1.4-5.85,2.1-9.51,2.1h-10.23s0-36.65,0-36.65h10.23c3.66,0,6.82.71,9.51,2.11,2.68,1.4,4.75,3.47,6.22,6.22,1.52,2.67,2.29,5.96,2.29,9.86,0,3.96-.74,7.34-2.19,10.15Z"/>
      <polygon class="cls-1" points="637.93 78.97 637.93 92.88 589.47 92.88 589.47 28.08 637.38 28.08 637.38 41.99 605.96 41.99 605.96 53.74 634.62 53.74 634.62 67.29 605.96 67.29 605.96 78.97 637.93 78.97"/>
      <polygon class="cls-1" points="272.14 41.99 272.14 54.55 301.07 54.55 301.07 68.46 272.14 68.46 272.14 92.88 255.65 92.88 255.65 28.08 302.54 28.08 302.54 41.99 272.14 41.99"/>
      <path class="cls-1" d="M365.94,37.34c-3-2.94-6.53-5.2-10.58-6.79-4.06-1.65-8.5-2.47-13.31-2.47s-9.26.82-13.32,2.47c-4.06,1.59-7.58,3.85-10.58,6.79-2.99,2.94-5.34,6.37-7.06,10.31-1.64,3.88-2.46,8.11-2.46,12.7s.85,8.88,2.55,12.87c1.7,3.94,4.06,7.38,7.06,10.32,3.05,2.94,6.61,5.23,10.67,6.87,4.06,1.65,8.5,2.47,13.32,2.47s9.14-.79,13.14-2.38c4.06-1.64,7.58-3.94,10.58-6.87,3-3,5.31-6.47,6.96-10.41,1.7-3.94,2.55-8.19,2.55-12.78s-.85-8.85-2.55-12.79c-1.65-3.94-3.97-7.37-6.96-10.31ZM357.21,70.05c-1.41,2.76-3.41,4.91-6,6.44-2.58,1.53-5.64,2.3-9.16,2.3-2.65,0-5.03-.41-7.15-1.24-2.11-.88-3.94-2.11-5.47-3.7-1.52-1.65-2.7-3.58-3.53-5.82-.76-2.3-1.14-4.85-1.14-7.68,0-3.65.7-6.85,2.11-9.61,1.41-2.76,3.41-4.88,6-6.35,2.58-1.52,5.64-2.29,9.17-2.29,2.64,0,5.02.44,7.14,1.32,2.11.88,3.94,2.14,5.47,3.79,1.52,1.59,2.67,3.5,3.44,5.73.82,2.23,1.23,4.7,1.23,7.4,0,3.7-.7,6.94-2.11,9.7Z"/>
      <polygon class="cls-1" points="491.17 28.08 507.52 28.08 507.52 92.88 495.37 92.88 467.04 56.88 467.04 92.88 450.68 92.88 450.68 28.08 462.1 28.08 491.17 64.91 491.17 28.08"/>
      <path class="cls-1" d="M423.36,28.08h16.59v37.8c0,5.22-1.17,9.89-3.51,14-2.33,4.06-5.59,7.25-9.76,9.58-4.12,2.28-8.97,3.41-14.56,3.41s-10.41-1.13-14.65-3.41c-4.18-2.33-7.44-5.56-9.77-9.68-2.33-4.12-3.5-8.78-3.5-14V28.08h16.4v38.91c0,2.33.49,4.36,1.47,6.08,1.05,1.66,2.43,2.95,4.15,3.88,1.77.86,3.74,1.29,5.9,1.29s4.14-.43,5.8-1.29c1.66-.92,2.98-2.22,3.96-3.88.98-1.66,1.48-3.65,1.48-5.98V28.08Z"/>
      <path class="cls-1" d="M681.64,65.88c1.69-.38,3.28-.92,4.75-1.61,3.41-1.64,6.07-3.9,7.96-6.77,1.95-2.92,2.92-6.3,2.92-10.14s-.94-7.19-2.83-10.05c-1.88-2.86-4.51-5.12-7.86-6.77-3.29-1.64-7.12-2.47-11.51-2.47h-27.6v64.8h16.36v-26.23h.97l17.76,26.23h18.92l-19.83-27.01ZM663.82,40.23h8.96c2.68,0,4.72.7,6.12,2.11,1.46,1.34,2.19,3.11,2.19,5.3s-.73,4.05-2.19,5.39c-1.4,1.29-3.44,1.93-6.12,1.93h-8.96v-14.72Z"/>
      <path class="cls-1" d="M751.15,73.23c0,6.25-2.21,11.09-6.64,14.52-4.37,3.42-10.51,5.13-18.42,5.13-5.25,0-9.82-.8-13.72-2.39-3.84-1.59-7.35-4.1-10.53-7.52l10-10.1c2.19,2.3,4.51,4.07,6.99,5.31,2.48,1.18,5.28,1.78,8.41,1.78,2.65,0,4.7-.45,6.1-1.33,1.48-.95,2.21-2.21,2.21-3.81,0-1.47-.53-2.69-1.59-3.63-1.06-1-2.48-1.86-4.25-2.56-1.71-.77-3.63-1.48-5.76-2.12-2.07-.71-4.16-1.54-6.29-2.48-2.06-1.01-3.98-2.22-5.75-3.63-1.71-1.42-3.1-3.19-4.16-5.31-1.06-2.12-1.59-4.75-1.59-7.88,0-4.01.94-7.43,2.84-10.27,1.94-2.84,4.63-5.02,8.05-6.55,3.42-1.53,7.4-2.3,11.94-2.3s8.74.77,12.58,2.3c3.84,1.54,6.99,3.66,9.47,6.38l-10.1,10c-1.89-1.89-3.81-3.3-5.75-4.26-1.95-.94-4.07-1.41-6.38-1.41-2.19,0-3.9.38-5.13,1.14-1.24.77-1.86,1.86-1.86,3.28s.53,2.57,1.59,3.45c1.06.89,2.45,1.68,4.16,2.4,1.77.65,3.69,1.33,5.75,2.03,2.13.7,4.22,1.54,6.29,2.48,2.07.94,3.95,2.15,5.67,3.62,1.78,1.48,3.19,3.34,4.25,5.58,1.06,2.24,1.59,4.95,1.59,8.15Z"/>
    </g>
    <g>
      <path class="cls-1" d="M387.96,127.78c-1.63-3.94-3.9-7.39-6.82-10.35-2.89-2.97-6.29-5.27-10.16-6.91-3.81-1.63-7.97-2.45-12.44-2.45s-8.67.82-12.55,2.45c-3.81,1.64-7.17,3.94-10.09,6.91-2.84,2.96-5.07,6.42-6.71,10.35-1.58,3.88-2.37,8.09-2.37,12.63s.79,8.69,2.37,12.62c1.63,3.94,3.91,7.42,6.81,10.44,2.91,2.97,6.29,5.31,10.16,7,3.88,1.63,8.07,2.45,12.55,2.45s8.53-.82,12.35-2.45c3.87-1.69,7.24-4.03,10.08-7,2.92-2.97,5.18-6.42,6.82-10.35,1.63-3.94,2.45-8.15,2.45-12.63s-.82-8.78-2.45-12.72ZM378.6,153.03c-1.99,3.63-4.73,6.51-8.17,8.63-3.39,2.06-7.37,3.09-11.9,3.09-3.34,0-6.43-.61-9.27-1.82-2.78-1.21-5.21-2.87-7.27-5-2-2.18-3.58-4.75-4.71-7.72-1.1-3.02-1.64-6.29-1.64-9.81,0-4.72.97-8.9,2.9-12.54,2-3.63,4.7-6.48,8.1-8.54,3.45-2.07,7.41-3.09,11.9-3.09,3.39,0,6.47.6,9.26,1.81,2.78,1.16,5.2,2.82,7.26,5s3.67,4.75,4.82,7.72c1.15,2.91,1.73,6.12,1.73,9.64,0,4.72-1,8.93-3,12.62Z"/>
      <path class="cls-1" d="M452.27,108.06v40.17c0,3.32-.7,6.2-2.11,8.66-1.35,2.46-3.23,4.36-5.62,5.72-2.33,1.35-5.07,2.03-8.2,2.03s-5.74-.68-8.2-2.03c-2.39-1.35-4.3-3.26-5.71-5.72-1.42-2.46-2.12-5.37-2.12-8.75v-40.08h-8.66v40.27c0,4.72,1.08,8.96,3.22,12.72,2.15,3.68,5.07,6.6,8.75,8.75,3.75,2.1,7.99,3.13,12.72,3.13s9.03-1.04,12.72-3.13c3.69-2.14,6.6-5.07,8.75-8.75,2.14-3.69,3.22-7.9,3.22-12.63v-40.35h-8.75Z"/>
      <path class="cls-1" d="M523.95,146.85c-1.09-2.24-2.54-4.06-4.36-5.45-1.81-1.39-3.81-2.55-5.99-3.46-2.18-.9-4.4-1.72-6.63-2.45-2.18-.79-4.18-1.63-6-2.55-1.81-.9-3.3-1.99-4.45-3.27-1.09-1.33-1.63-3.05-1.63-5.18,0-2.67,1-4.72,3-6.18,2-1.51,4.7-2.27,8.09-2.27,2.79,0,5.24.54,7.36,1.64,2.18,1.09,4.21,2.72,6.09,4.9l5.81-5.81c-2.06-2.6-4.72-4.7-7.99-6.27-3.28-1.63-6.97-2.45-11.08-2.45-3.76,0-7.15.7-10.18,2.09-2.97,1.33-5.33,3.27-7.08,5.81-1.7,2.48-2.55,5.51-2.55,9.08,0,3.21.54,5.87,1.63,7.99,1.16,2.12,2.64,3.85,4.45,5.18,1.81,1.28,3.81,2.37,5.99,3.28,2.19.85,4.37,1.66,6.55,2.45,2.18.72,4.18,1.57,5.99,2.55,1.88.9,3.36,2.09,4.45,3.54,1.09,1.46,1.63,3.36,1.63,5.72,0,2.85-1.15,5.09-3.45,6.72-2.24,1.63-5.24,2.45-9,2.45s-7.03-.7-9.63-2.09c-2.6-1.46-4.9-3.58-6.9-6.36l-5.81,5.81c2.72,3.45,5.84,6.09,9.35,7.9,3.51,1.82,7.75,2.72,12.72,2.72,6.54,0,11.72-1.57,15.54-4.72,3.88-3.15,5.81-7.5,5.81-13.07,0-3.33-.57-6.1-1.73-8.27Z"/>
      <polygon class="cls-1" points="589.47 165 589.47 172.93 546.91 172.93 546.91 108.06 589.47 108.06 589.47 115.99 555.57 115.99 555.57 136.72 586.43 136.72 586.43 144.27 555.57 144.27 555.57 165 589.47 165"/>
      <polygon class="cls-1" points="305.59 108.06 305.59 172.93 296.93 172.93 296.93 144.46 264.32 144.46 264.32 172.93 255.65 172.93 255.65 108.06 264.32 108.06 264.32 136.53 296.93 136.53 296.93 108.06 305.59 108.06"/>
    </g>
  </g>
  <g>
    <path class="cls-2" d="M55.65,28.08h-27.57v27.57h27.57v-27.57Z"/>
    <path class="cls-2" d="M172.92,145.35v27.57h-55.16l27.57-27.57h27.58Z"/>
    <path class="cls-4" d="M172.92,28.08v117.27h-27.58,0V55.65H55.65v-27.57h117.27Z"/>
    <path class="cls-2" d="M200.5.5v144.85h-27.58V28.08H55.65V.5h144.85Z"/>
    <path class="cls-2" d="M117.76,172.93l-27.57,27.57H.5V55.65h27.57v117.27h89.69Z"/>
    <path class="cls-4" d="M145.34,145.35l-27.57,27.57H28.07V55.65s27.57,0,27.57,0v89.7h89.69Z"/>
    <path class="cls-3" d="M145.35,55.65v89.69h0s-89.69,0-89.69,0V55.65h89.7Z"/>
  </g>
</svg>